<?xml version="1.0" encoding="utf-8"?>
<!-- Generator: Adobe Illustrator 17.1.0, SVG Export Plug-In . SVG Version: 6.00 Build 0)  -->
<!DOCTYPE svg PUBLIC "-//W3C//DTD SVG 1.1//EN" "http://www.w3.org/Graphics/SVG/1.1/DTD/svg11.dtd">
<svg version="1.1" id="Layer_1" xmlns="http://www.w3.org/2000/svg" xmlns:xlink="http://www.w3.org/1999/xlink" x="0px" y="0px"
	 viewBox="84.6 152.1 465 462" enable-background="new 84.6 152.1 465 462" xml:space="preserve">
<g>
	
		<linearGradient id="SVGID_1_" gradientUnits="userSpaceOnUse" x1="210.2843" y1="500.4425" x2="472.0115" y2="277.8961" gradientTransform="matrix(1 0 0 -1 1.020761e-06 792)">
		<stop  offset="0" style="stop-color:#235A93"/>
		<stop  offset="0.1491" style="stop-color:#22649E"/>
		<stop  offset="0.7153" style="stop-color:#0C8AC5"/>
		<stop  offset="1" style="stop-color:#009BD8"/>
	</linearGradient>
	<path fill="url(#SVGID_1_)" d="M498,382.7c-5.1,47.7-18.7,95.1-50.4,135.5c-3,3.3-6,6.6-9.2,9.7c-25.7,24.8-58.7,41.2-99.2,43.3
		c-5.4,0.3-10.9,0.4-16.3,0.2c-5.5-0.2-10.9-0.6-16.4-1.2c-108.5-11-196.6-126.3-166.9-234.3c1.5-5,3.3-10,5.3-14.8
		c25.8-63.2,87.9-111.8,158.9-119.5c8.5-1.1,17-1.5,25.6-1.1c4.3,0.2,8.5,0.5,12.7,1.1c15.6,2.9,30.8,7.5,45.4,13.6
		c4.9,2.1,9.6,4.3,14.3,6.7c53.8,29,94.5,79.8,96.2,144C498.3,371.3,498.3,376.9,498,382.7z"/>
	<g>
		<path fill="#EF7C32" d="M447.5,564.2c-85.1,74.6-220.6,44.5-289.5-42.6c-3.5-3.9-6.8-7.9-10-12c-35.2-44.4-53.8-94.1-53.4-142
			c0-5.2,0.3-10.4,0.8-15.6c13.8-109.7,119-183.7,224.8-189.1c5.9-0.3,11.8-0.4,17.6-0.2c41.8-0.8,78.7,14,109.1,38.5
			c4.3,3.5,8.6,7.2,12.6,11c87.4,80.1,106.2,227,23.6,316.5c-2.5,3.1-5.1,6.1-7.9,9.1C467.2,546.9,458,555.5,447.5,564.2
			L447.5,564.2z M182.7,241.6c-38.7,31.9-65.1,80.9-62.9,129.2c-0.1,5.2,0.1,10.5,0.5,15.7c2.7,33.6,15.4,67.5,36.9,98.7
			c2.7,3.9,5.5,7.8,8.5,11.5c46,70.5,147.7,104.4,226.8,74.3c24.5-11.3,46.1-27.3,63.9-46.4c3.6-3.8,6.9-7.8,10.2-11.8
			c65.3-84.9,54-220.4-36.8-286.9c-4.6-3.3-9.4-6.4-14.4-9.2c-14.9-8.5-31.4-14.8-49.3-18.4c-15.1-3.8-33.6-9-48-7.3
			c-5.5,0.1-11,0.3-16.4,0.7C258.2,195,216.1,210.5,182.7,241.6L182.7,241.6z"/>
	</g>
	<g>
		<g>
			<path fill="#A9ABAE" d="M381,305.2c-5.8,4.7-10,10.6-14.8,16.1c-6.5,7.5-15.5,10.7-25.4,9.9c-4.9-0.4-9.4-1.5-14.4-1.2
				c-3.8,0.2-7.6,1.7-11.1,3.3c-4.4,1.9-8.4,4.2-13,5.6c-5.6,1.6-12.1,0.1-17.6-1c-10.3-2.1-20.2-5.6-30.2-8.6
				c-9.8-2.9-19.9-4.6-29.8-7.5c-9.1-2.7-17.8-3.6-27.2-1.9c-10.5,1.9-20.3,6.2-30.9,7.4c-1.6,0.2-2.7,2.2-0.4,1.9
				c10.2-1.2,19.7-4.9,29.7-7.2c12.5-2.8,23.4,0.7,35.3,4c10.4,2.9,21,4.9,31.4,8.1c9.9,3.1,19.9,6,30.2,7c8.9,0.9,16-2.9,23.9-6.5
				c6.4-2.9,12.2-3.1,19-2c4.9,0.7,9.4,0.6,14.3-0.1c16.2-2.4,22.1-17.5,33.7-26.8C385.2,304.6,381.9,304.5,381,305.2L381,305.2z"/>
		</g>
	</g>
	<g>
		<path fill="#FFFFFF" d="M231.9,357.1h-20.8v36c0,4.7,1,8,3,10.1s4.6,3.1,7.8,3.1c2.6,0,4.8-0.4,6.6-1.3c1.7-0.9,3.2-2.2,4.5-4.1
			l0.8,0.4c-0.6,1.4-1.3,2.8-2.3,4.3s-2.2,2.9-3.8,4.1s-3.5,2.2-5.6,2.9c-2.1,0.7-4.7,1-7.6,1c-1.9,0-3.8-0.3-5.5-0.9
			c-1.8-0.6-3.3-1.5-4.7-2.6s-2.5-2.4-3.3-3.8c-0.9-1.4-1.3-2.9-1.3-4.3c0-8.6,0-16.7,0.1-24.4c0.1-7.7,0.1-14.6,0.1-20.6h-10v-1.5
			l19.7-18.8h1.1v11.9H236L231.9,357.1z"/>
		<path fill="#FFFFFF" d="M344,402.8c-1.4,2.6-3.3,4.7-5.7,6.4c-2.4,1.6-5.1,2.8-8.1,3.6c-3.1,0.7-6.3,1.1-9.7,1.1
			c-4,0-7.8-0.4-11.4-1.1s-6.8-1.8-9.9-3.1v-18.1h1.1c0.7,2.2,1.6,4.5,2.7,6.9s2.4,4.7,4,6.7c1.5,2.1,3.4,3.7,5.6,5.1
			c2.2,1.3,4.8,2,7.8,2c4.4,0,7.8-1.3,10.4-3.8s3.9-6.4,3.9-11.6c0-2.8-0.9-5.2-2.7-7c-1.8-1.9-4.2-3.1-7.3-3.8
			c-2.5-0.5-4.8-1-7.1-1.5c-2.3-0.5-4.3-1.1-6.1-1.8c-3.5-1.2-6.3-3.2-8.4-6.2c-2.1-2.9-3.2-6.4-3.2-10.6c0-2.8,0.6-5.4,1.8-7.7
			c1.2-2.3,2.8-4.2,4.8-5.9c2-1.6,4.3-2.9,7-3.8c2.6-0.9,5.5-1.3,8.5-1.3c3.8,0,7.2,0.3,10.1,1s5.7,1.5,8.4,2.5l1.6,17l-1.1,0.3
			c-1.3-2.7-2.6-5.3-3.8-7.6c-1.3-2.3-2.7-4.3-4.2-6c-1.6-1.7-3.3-3-5.3-3.9s-4.2-1.4-6.8-1.4c-1.6,0-3.1,0.3-4.6,0.8
			s-2.8,1.3-4,2.4c-1.1,1.1-2.1,2.4-2.8,4c-0.7,1.6-1.1,3.4-1.1,5.5c0,3.4,1,5.8,2.9,7.3s4.3,2.6,7.3,3.3c2,0.5,4.2,0.9,6.6,1.4
			s4.4,1,6.2,1.4c4.1,1,7.6,3.1,10.5,6.3c2.9,3.2,4.3,7.1,4.3,11.8C346.1,397.1,345.4,400.2,344,402.8z"/>
		<path fill="#FFFFFF" d="M386.1,357.1h-20.8v36c0,4.7,1,8,3,10.1s4.6,3.1,7.8,3.1c2.7,0,4.8-0.4,6.6-1.3c1.7-0.9,3.3-2.2,4.5-4.1
			l0.8,0.4c-0.5,1.4-1.3,2.8-2.3,4.3s-2.2,2.9-3.8,4.1c-1.6,1.2-3.5,2.2-5.6,2.9c-2.2,0.7-4.7,1-7.6,1c-1.9,0-3.8-0.3-5.5-0.9
			c-1.8-0.6-3.3-1.5-4.7-2.6c-1.3-1.1-2.5-2.4-3.3-3.8c-0.9-1.4-1.3-2.9-1.3-4.3c0-8.6,0.1-16.7,0.1-24.4c0.1-7.7,0.1-14.6,0.1-20.6
			h-10v-1.5l19.7-18.8h1.1v11.9h25.3L386.1,357.1z"/>
		<path fill="#FFFFFF" d="M455.2,350.6c-1.1,0.1-2.1,0.3-3,0.7c-1,0.4-1.8,0.9-2.5,1.7c-0.7,0.8-1.3,1.9-1.8,3.3
			c-0.5,1.5-1.2,3.8-2.2,7s-2.2,7-3.6,11.3s-2.9,9.1-4.5,14.3c-1.6,5.2-3.3,10.5-5,16s-3.4,10.9-5.1,16.3s-3.3,10.5-4.9,15.3
			c-1.1,3.5-2.7,6-4.7,7.5c-2,1.6-4.1,2.3-6.2,2.3c-1.8,0-3.5-0.6-5.1-1.7c-1.6-1.2-2.3-2.7-2.3-4.5s0.5-3.4,1.6-4.6
			s2.6-1.8,4.4-1.8s3.4,0.5,4.6,1.7c1.2,1.1,2.5,2.3,3.8,3.5h0.3c1-2.5,1.9-4.9,2.7-7.3c0.8-2.4,1.5-4.6,2.1-6.6s1.1-3.6,1.4-5
			c0.4-1.4,0.6-2.3,0.7-2.7c-0.2-0.4-0.7-1.7-1.5-3.9c-0.8-2.2-1.9-5.1-3.2-8.6c-1.3-3.5-2.7-7.5-4.4-11.9c-1.6-4.4-3.3-8.9-5-13.5
			s-3.4-9.1-5-13.6s-3.1-8.6-4.5-12.3c-0.8-0.9-1.8-1.6-2.9-2.2s-3.3-0.9-6.4-1.1v-1.5h30v1.5c-1.9,0.3-3.6,0.6-5,1.1
			s-2.1,1.5-2.1,3.3c0,0.5,0.3,1.6,0.8,3.4c0.6,1.8,1.3,4,2.2,6.6c0.9,2.6,1.9,5.5,3.1,8.7c1.1,3.2,2.3,6.3,3.4,9.5s2.3,6.3,3.4,9.2
			c1.1,3,2.1,5.5,2.9,7.7c0.3-0.7,0.8-2.3,1.5-4.7c0.7-2.4,1.6-5.2,2.6-8.4c1-3.2,2.1-6.6,3.1-10.2c1.1-3.6,2.1-6.9,3-10.1
			s1.7-5.8,2.3-8.1c0.6-2.2,0.9-3.6,0.9-4.2c0-0.8-0.2-1.5-0.7-2s-1.1-0.9-1.8-1.2c-0.8-0.3-1.6-0.5-2.5-0.6s-1.8-0.2-2.6-0.3v-1.5
			h21.1v1.5C457.3,350.4,456.3,350.5,455.2,350.6z"/>
	</g>
	<g>
		<path fill="#FFFFFF" d="M270.4,446c-0.6,1.4-1.4,2.6-2.5,3.6s-2.4,1.8-3.9,2.3c-1.5,0.6-3.3,0.8-5.2,0.8c-0.5,0-1.1,0-1.6,0
			s-1.1-0.1-1.6-0.2c0,0.4,0,1,0,1.8s0,1.6,0,2.5s0,1.7,0,2.5s0,1.5,0,2c0.1,0.3,0.2,0.4,0.5,0.6c0.3,0.1,0.6,0.2,1,0.3
			c0.4,0.1,0.8,0.1,1.1,0.1c0.4,0,0.8,0.1,1,0.1v0.5h-11v-0.5c0.3,0,0.6-0.1,1.1-0.1c0.4-0.1,0.8-0.2,1.2-0.3
			c0.4-0.1,0.7-0.3,0.9-0.4c0.3-0.2,0.4-0.4,0.4-0.6v-23.9c0-0.2,0-0.4-0.1-0.5s-0.2-0.2-0.4-0.4c-0.3-0.1-0.7-0.4-1.3-0.6
			c-0.6-0.3-1.1-0.5-1.4-0.6v-0.3l6.6-2.5h0.3v4.8v0.1c0.4-0.5,0.9-1.1,1.4-1.7s1.1-1.1,1.7-1.6s1.3-0.9,2-1.2
			c0.7-0.3,1.5-0.5,2.4-0.5c1.4,0,2.6,0.3,3.6,0.8s1.9,1.3,2.5,2.1c0.7,0.9,1.2,1.9,1.5,3s0.5,2.3,0.5,3.4
			C271.2,443.1,270.9,444.6,270.4,446z M266.8,439.7c-0.3-0.9-0.7-1.8-1.2-2.5s-1.2-1.3-2.1-1.7c-0.8-0.4-1.8-0.6-2.9-0.6
			c-0.8,0-1.5,0.1-2.1,0.4s-1.1,0.6-1.6,0.9c-0.4,0.4-0.7,0.7-1,1.1c-0.2,0.4-0.3,0.6-0.3,0.8c0,0.6,0,1.2,0,1.8c0,0.6,0,1.2,0,1.7
			c0,1.2,0,2.1,0,2.8c0,0.7,0,1.3,0,2c0.1,0.6,0.2,1.2,0.3,1.9c0.1,0.6,0.4,1.2,0.7,1.8c0.4,0.5,0.9,1,1.5,1.3s1.4,0.5,2.4,0.5
			c0.9,0,1.7-0.2,2.5-0.7s1.5-1.1,2.1-1.9s1.1-1.8,1.5-2.9s0.5-2.3,0.5-3.7C267.2,441.7,267.1,440.7,266.8,439.7z"/>
		<path fill="#FFFFFF" d="M292.3,450.3c-0.2,0.5-0.6,1-0.9,1.4c-0.4,0.4-0.8,0.7-1.3,1c-0.5,0.2-1.1,0.3-1.7,0.3
			c-1,0-1.9-0.3-2.7-0.9c-0.8-0.6-1.2-1.6-1.2-3h-0.1c-0.2,0.4-0.6,0.8-1,1.2c-0.4,0.5-0.9,0.9-1.4,1.3c-0.6,0.4-1.1,0.7-1.8,1
			c-0.7,0.2-1.4,0.4-2.2,0.4c-0.5,0-0.9-0.1-1.4-0.2s-0.9-0.4-1.3-0.7c-0.4-0.3-0.7-0.8-1-1.3s-0.4-1.1-0.4-1.9s0.3-1.6,1-2.3
			c0.7-0.7,1.5-1.4,2.5-2s1.8-1.1,2.6-1.6c0.8-0.4,1.4-0.8,2-1.1c0.6-0.3,1.1-0.6,1.5-0.8c0.4-0.2,0.8-0.4,1.1-0.6v-4.4
			c0,0-0.1-0.2-0.2-0.4c-0.1-0.2-0.3-0.4-0.5-0.7c-0.3-0.2-0.6-0.4-1-0.6s-1-0.3-1.7-0.3c-0.5,0-0.9,0.1-1.4,0.2
			c-0.5,0.2-0.9,0.4-1.2,0.6c-0.4,0.2-0.6,0.5-0.8,0.7c-0.2,0.2-0.3,0.5-0.3,0.6v1.9c0,0.4-0.2,0.8-0.6,1.1
			c-0.4,0.3-0.9,0.5-1.4,0.5s-0.9-0.2-1.2-0.5c-0.4-0.3-0.5-0.7-0.5-1.1c0-0.3,0.1-0.7,0.3-0.9c0.2-0.3,0.4-0.5,0.7-0.8
			c0.3-0.2,0.6-0.4,0.9-0.6s0.6-0.3,0.8-0.5c0.8-0.4,1.5-0.8,2.3-1.2c0.8-0.4,1.6-0.8,2.3-1c0.7-0.3,1.4-0.5,2-0.7s1.1-0.3,1.5-0.3
			c0.8,0,1.5,0.2,2.2,0.6s1.2,0.9,1.5,1.4c0.1,0.2,0.2,0.6,0.2,1.1s0,1,0,1.5c0,1,0,2,0,2.8s0,1.6,0,2.4s0,1.6,0,2.4s0,1.7,0,2.7
			c0,1.3,0.2,2.1,0.7,2.6c0.4,0.4,1,0.6,1.6,0.6c0.7,0,1.2-0.1,1.5-0.4s0.6-0.6,0.7-1.1h0.3C292.7,449.3,292.6,449.8,292.3,450.3z
			 M284.5,441.2c-0.5,0.4-1.2,0.8-2,1.2c-0.8,0.4-1.6,0.9-2.3,1.4c-0.8,0.5-1.4,1-1.9,1.6s-0.8,1.3-0.8,2s0.3,1.4,0.8,2
			s1.2,0.9,2.1,0.9c0.8,0,1.4-0.1,2-0.3c0.6-0.2,1.1-0.5,1.6-1c0.4-0.3,0.5-0.7,0.5-1.2L284.5,441.2L284.5,441.2z"/>
		<path fill="#FFFFFF" d="M305.7,452.9v-0.5c0.8,0,1.4-0.1,1.9-0.3c0.5-0.1,0.7-0.4,0.7-0.9v-10.9c0-1.7-0.3-3-1-4
			c-0.6-1-1.8-1.5-3.3-1.5c-1,0-1.8,0.2-2.4,0.6c-0.7,0.4-1.4,1-2.2,1.8v14.1c0.1,0.3,0.2,0.5,0.3,0.6c0.2,0.1,0.3,0.2,0.5,0.3
			c0.2,0.1,0.5,0.1,0.7,0.1c0.3,0,0.5,0.1,0.8,0.1v0.4h-8.6v-0.4c0.7-0.1,1.3-0.2,1.8-0.4c0.5-0.2,0.7-0.5,0.7-1v-14.8
			c0-0.2,0-0.4-0.1-0.5s-0.2-0.2-0.4-0.4c-0.3-0.1-0.6-0.3-0.9-0.5c-0.4-0.2-0.7-0.3-1.1-0.5V434l5.8-2h0.3v4.6h0.1
			c0.3-0.5,0.7-1,1.2-1.6s1-1.1,1.7-1.5c0.6-0.5,1.3-0.8,2-1.1c0.7-0.3,1.5-0.4,2.3-0.4c1.7,0,3,0.6,3.9,1.9
			c0.9,1.2,1.4,2.8,1.4,4.8v12.7c0,0.2,0.1,0.4,0.3,0.5c0.2,0.1,0.4,0.3,0.7,0.3c0.3,0.1,0.6,0.1,0.9,0.2c0.3,0,0.6,0.1,0.9,0.1v0.4
			L305.7,452.9L305.7,452.9z"/>
		<path fill="#FFFFFF" d="M335.3,450.3c-0.2,0.5-0.6,1-0.9,1.4c-0.4,0.4-0.8,0.7-1.3,1c-0.5,0.2-1.1,0.3-1.7,0.3
			c-1,0-1.9-0.3-2.7-0.9c-0.8-0.6-1.2-1.6-1.2-3h-0.1c-0.2,0.4-0.6,0.8-0.9,1.2c-0.4,0.5-0.9,0.9-1.4,1.3s-1.2,0.7-1.8,1
			c-0.7,0.2-1.4,0.4-2.2,0.4c-0.5,0-0.9-0.1-1.4-0.2s-0.9-0.4-1.3-0.7c-0.4-0.3-0.7-0.8-1-1.3s-0.4-1.1-0.4-1.9s0.3-1.6,1-2.3
			c0.7-0.7,1.5-1.4,2.5-2s1.8-1.1,2.6-1.6c0.8-0.4,1.4-0.8,2-1.1c0.6-0.3,1.1-0.6,1.5-0.8c0.4-0.2,0.8-0.4,1.1-0.6v-4.4
			c0,0,0-0.2-0.1-0.4c-0.1-0.2-0.3-0.4-0.5-0.7c-0.2-0.2-0.6-0.4-1-0.6s-1-0.3-1.7-0.3c-0.5,0-0.9,0.1-1.4,0.2
			c-0.5,0.2-0.9,0.4-1.2,0.6c-0.3,0.2-0.6,0.5-0.8,0.7c-0.2,0.2-0.3,0.5-0.3,0.6v1.9c0,0.4-0.2,0.8-0.6,1.1
			c-0.4,0.3-0.9,0.5-1.4,0.5s-0.9-0.2-1.2-0.5c-0.3-0.3-0.5-0.7-0.5-1.1c0-0.3,0.1-0.7,0.3-0.9c0.2-0.3,0.4-0.5,0.7-0.8
			c0.3-0.2,0.6-0.4,0.9-0.6s0.6-0.3,0.8-0.5c0.8-0.4,1.6-0.8,2.3-1.2c0.8-0.4,1.6-0.8,2.3-1c0.7-0.3,1.4-0.5,2-0.7s1.1-0.3,1.5-0.3
			c0.8,0,1.5,0.2,2.2,0.6s1.2,0.9,1.5,1.4c0.1,0.2,0.2,0.6,0.2,1.1s0,1,0,1.5c0,1,0,2,0,2.8s0,1.6,0,2.4s0,1.6,0,2.4s0,1.7,0,2.7
			c0,1.3,0.2,2.1,0.7,2.6c0.5,0.4,1,0.6,1.6,0.6c0.7,0,1.2-0.1,1.5-0.4s0.6-0.6,0.7-1.1h0.3C335.7,449.3,335.6,449.8,335.3,450.3z
			 M327.5,441.2c-0.5,0.4-1.2,0.8-2,1.2c-0.8,0.4-1.6,0.9-2.3,1.4c-0.8,0.5-1.4,1-2,1.6c-0.5,0.6-0.8,1.3-0.8,2s0.3,1.4,0.8,2
			s1.2,0.9,2.1,0.9c0.8,0,1.5-0.1,2-0.3c0.6-0.2,1.1-0.5,1.6-1c0.4-0.3,0.5-0.7,0.5-1.2L327.5,441.2L327.5,441.2z"/>
		<path fill="#FFFFFF" d="M360.9,452.9v-0.5c0.8,0,1.4-0.1,1.8-0.3c0.4-0.1,0.6-0.4,0.6-0.9v-11c0-1.7-0.3-3-0.9-4s-1.7-1.5-3.2-1.5
			c-1,0-1.8,0.3-2.5,0.8s-1.3,1.1-2,1.9v13.9c0,0.2,0.1,0.4,0.2,0.5c0.2,0.1,0.3,0.3,0.6,0.3c0.2,0.1,0.5,0.1,0.8,0.2
			c0.3,0,0.6,0.1,0.8,0.1v0.4h-8.7v-0.5c0.8,0,1.4-0.1,1.9-0.3c0.5-0.1,0.7-0.4,0.7-0.9v-11c0-1.7-0.3-3-0.9-4s-1.7-1.4-3.2-1.4
			c-1,0-1.8,0.2-2.4,0.6s-1.3,1-2.1,1.8v14.1c0.1,0.3,0.2,0.5,0.3,0.6c0.2,0.1,0.3,0.2,0.6,0.3c0.2,0.1,0.5,0.1,0.7,0.1
			c0.3,0,0.5,0.1,0.8,0.1v0.4h-8.6v-0.4c0.7-0.1,1.3-0.2,1.8-0.4c0.5-0.2,0.7-0.5,0.7-1v-14.7c0-0.2,0-0.4-0.1-0.5
			c0-0.1-0.2-0.2-0.4-0.4c-0.3-0.1-0.6-0.3-0.9-0.5c-0.4-0.2-0.7-0.4-1.1-0.5V434l5.8-2h0.3v4.6h0.1c0.3-0.5,0.7-1.1,1.1-1.6
			c0.5-0.6,1-1.1,1.6-1.5s1.3-0.8,2-1.1c0.7-0.3,1.5-0.4,2.3-0.4c1.4,0,2.6,0.4,3.4,1.4c0.9,0.9,1.4,2.1,1.6,3.6h0.1
			c0.3-0.5,0.6-1.1,1.1-1.7s1-1.1,1.6-1.6s1.3-0.9,2.1-1.2c0.8-0.3,1.5-0.5,2.3-0.5c1.7,0,3,0.6,3.9,1.8c0.9,1.2,1.3,2.8,1.3,4.7
			v12.8c0,0.2,0.1,0.4,0.3,0.5c0.2,0.1,0.4,0.3,0.6,0.3c0.3,0.1,0.5,0.1,0.8,0.2c0.3,0,0.6,0.1,0.8,0.1v0.4h-8.4V452.9z"/>
		<path fill="#FFFFFF" d="M390.4,450.3c-0.2,0.5-0.6,1-0.9,1.4c-0.4,0.4-0.8,0.7-1.4,1c-0.5,0.2-1.1,0.3-1.7,0.3
			c-1,0-1.9-0.3-2.7-0.9c-0.8-0.6-1.2-1.6-1.2-3h-0.1c-0.2,0.4-0.5,0.8-0.9,1.2c-0.4,0.5-0.9,0.9-1.4,1.3c-0.6,0.4-1.2,0.7-1.8,1
			c-0.7,0.2-1.4,0.4-2.2,0.4c-0.5,0-1-0.1-1.5-0.2s-0.9-0.4-1.3-0.7c-0.4-0.3-0.7-0.8-1-1.3s-0.4-1.1-0.4-1.9s0.3-1.6,1-2.3
			c0.7-0.7,1.5-1.4,2.5-2s1.8-1.1,2.6-1.6c0.8-0.4,1.4-0.8,2-1.1c0.6-0.3,1-0.6,1.5-0.8c0.4-0.2,0.8-0.4,1.1-0.6v-4.4
			c0,0-0.1-0.2-0.2-0.4c-0.1-0.2-0.3-0.4-0.5-0.7c-0.2-0.2-0.6-0.4-1-0.6s-1-0.3-1.7-0.3c-0.5,0-0.9,0.1-1.4,0.2
			c-0.5,0.2-0.9,0.4-1.2,0.6c-0.4,0.2-0.6,0.5-0.8,0.7c-0.2,0.2-0.3,0.5-0.3,0.6v1.9c0,0.4-0.2,0.8-0.6,1.1
			c-0.4,0.3-0.9,0.5-1.4,0.5s-0.9-0.2-1.2-0.5c-0.3-0.3-0.5-0.7-0.5-1.1c0-0.3,0.1-0.7,0.3-0.9c0.2-0.3,0.4-0.5,0.7-0.8
			c0.3-0.2,0.5-0.4,0.9-0.6c0.3-0.2,0.6-0.3,0.8-0.5c0.8-0.4,1.6-0.8,2.3-1.2c0.8-0.4,1.6-0.8,2.3-1c0.7-0.3,1.4-0.5,2-0.7
			s1.1-0.3,1.5-0.3c0.8,0,1.5,0.2,2.2,0.6s1.2,0.9,1.5,1.4c0.1,0.2,0.2,0.6,0.2,1.1s0,1,0,1.5c0,1,0,2,0,2.8s0,1.6,0,2.4
			s0,1.6,0,2.4s0,1.7,0,2.7c0,1.3,0.2,2.1,0.7,2.6c0.5,0.4,1,0.6,1.6,0.6c0.7,0,1.2-0.1,1.5-0.4s0.6-0.6,0.7-1.1h0.3
			C390.8,449.3,390.7,449.8,390.4,450.3z M382.6,441.2c-0.5,0.4-1.2,0.8-2,1.2c-0.8,0.4-1.6,0.9-2.3,1.4c-0.8,0.5-1.4,1-2,1.6
			c-0.5,0.6-0.8,1.3-0.8,2s0.3,1.4,0.8,2s1.2,0.9,2.1,0.9c0.8,0,1.4-0.1,2-0.3c0.6-0.2,1.1-0.5,1.7-1c0.4-0.3,0.5-0.7,0.5-1.2
			L382.6,441.2L382.6,441.2z"/>
	</g>
	<path fill="#9FCC3B" d="M273.1,385.8c-8.9,18.6-24,31.5-39.4,35.5c-6.5-14.5-5.9-34.4,3-53s24-31.5,39.4-35.5
		C282.6,347.4,282,367.2,273.1,385.8z"/>
	<path fill="#0EA04A" d="M298.9,422.9c-12.9-9.4-22.3-21.5-26.8-36.1c-4.5-14.5-3.6-29.9,1.8-44.9c12.9,9.4,22.3,21.6,26.8,36.1
		C305.2,392.5,304.3,407.8,298.9,422.9z"/>
	<path fill="#9FCC3B" d="M405.4,328.4c-3.1-5.7-7.6-10-13.2-12.5s-11.8-2.9-18.2-1.5c3.2,5.7,7.6,10,13.2,12.6
		C392.9,329.4,399.1,329.8,405.4,328.4z"/>
</g>
</svg>
